<svg xmlns="http://www.w3.org/2000/svg" xmlns:xlink="http://www.w3.org/1999/xlink" width="1920" zoomAndPan="magnify" viewBox="0 0 1440 809.999993" height="1080" preserveAspectRatio="xMidYMid meet" version="1.0"><defs><clipPath id="724c599290"><path d="M 1115 14.558594 L 1407 14.558594 L 1407 369 L 1115 369 Z M 1115 14.558594 " clip-rule="nonzero"/></clipPath><clipPath id="b70e06a341"><path d="M 33 14.558594 L 325 14.558594 L 325 369 L 33 369 Z M 33 14.558594 " clip-rule="nonzero"/></clipPath></defs><rect x="-144" width="1728" fill="#ffffff" y="-80.999999" height="971.999992" fill-opacity="1"/><rect x="-144" width="1728" fill="#ffffff" y="-80.999999" height="971.999992" fill-opacity="1"/><rect x="-144" width="1728" fill="#000000" y="-80.999999" height="971.999992" fill-opacity="1"/><g clip-path="url(#724c599290)"><path fill="#dec8aa" d="M 1115.972656 189.777344 C 1115.988281 189.675781 1116.019531 189.578125 1116.058594 189.480469 C 1116.058594 189.480469 1116.0625 189.476562 1116.0625 189.46875 C 1116.085938 189.40625 1116.117188 189.347656 1116.148438 189.292969 L 1175.433594 83.6875 C 1175.492188 83.582031 1175.5625 83.488281 1175.640625 83.398438 C 1175.640625 83.398438 1175.644531 83.398438 1175.644531 83.398438 C 1175.644531 83.398438 1175.644531 83.394531 1175.644531 83.394531 C 1175.792969 83.234375 1175.972656 83.105469 1176.183594 83.019531 C 1176.183594 83.019531 1176.183594 83.019531 1176.1875 83.019531 C 1176.191406 83.019531 1176.195312 83.019531 1176.195312 83.019531 C 1176.214844 83.011719 1176.238281 83.003906 1176.257812 82.996094 L 1363.539062 14.667969 C 1363.714844 14.601562 1363.902344 14.5625 1364.097656 14.5625 C 1364.191406 14.550781 1364.28125 14.570312 1364.367188 14.585938 C 1364.648438 14.636719 1364.898438 14.761719 1365.101562 14.933594 C 1365.203125 15.019531 1365.292969 15.121094 1365.371094 15.230469 C 1365.546875 15.484375 1365.644531 15.789062 1365.644531 16.105469 C 1365.644531 16.160156 1365.640625 16.210938 1365.636719 16.257812 C 1365.636719 16.257812 1365.636719 16.261719 1365.636719 16.265625 C 1365.636719 16.277344 1365.636719 16.289062 1365.636719 16.304688 L 1355.679688 96.179688 L 1402.289062 159.84375 C 1402.414062 160.011719 1402.503906 160.203125 1402.550781 160.410156 C 1402.550781 160.410156 1402.550781 160.414062 1402.550781 160.414062 C 1402.550781 160.414062 1402.550781 160.417969 1402.550781 160.417969 C 1402.566406 160.46875 1402.574219 160.515625 1402.582031 160.566406 C 1402.582031 160.566406 1402.582031 160.570312 1402.582031 160.570312 C 1402.582031 160.570312 1402.582031 160.570312 1402.582031 160.574219 C 1402.582031 160.574219 1402.582031 160.574219 1402.582031 160.578125 C 1402.585938 160.621094 1402.589844 160.664062 1402.589844 160.710938 L 1406.125 260.820312 C 1406.132812 260.9375 1406.125 261.058594 1406.101562 261.175781 C 1406.101562 261.175781 1406.101562 261.175781 1406.101562 261.179688 C 1406.097656 261.183594 1406.101562 261.1875 1406.101562 261.1875 C 1406.101562 261.191406 1406.101562 261.191406 1406.101562 261.191406 C 1406.097656 261.199219 1406.097656 261.207031 1406.09375 261.21875 C 1406.09375 261.222656 1406.09375 261.222656 1406.09375 261.222656 C 1406.09375 261.226562 1406.09375 261.230469 1406.09375 261.234375 C 1406.089844 261.238281 1406.09375 261.238281 1406.089844 261.242188 C 1406.089844 261.25 1406.089844 261.25 1406.089844 261.25 C 1406.027344 261.53125 1405.882812 261.773438 1405.695312 261.96875 L 1303.316406 368.445312 C 1303.011719 368.761719 1302.609375 368.917969 1302.203125 368.917969 C 1302.175781 368.917969 1302.148438 368.917969 1302.125 368.917969 L 1134.042969 361.578125 C 1134.039062 361.578125 1134.035156 361.574219 1134.03125 361.578125 C 1134.03125 361.578125 1134.027344 361.574219 1134.023438 361.578125 C 1134.019531 361.578125 1134.019531 361.578125 1134.015625 361.578125 C 1134.015625 361.578125 1134.015625 361.578125 1134.011719 361.578125 L 1134.007812 361.578125 C 1133.675781 361.554688 1133.371094 361.429688 1133.128906 361.230469 C 1133.03125 361.148438 1132.941406 361.054688 1132.867188 360.949219 C 1132.703125 360.730469 1132.601562 360.464844 1132.574219 360.175781 C 1132.570312 360.121094 1132.566406 360.066406 1132.566406 360.015625 L 1132.761719 234.21875 L 1116.0625 190.625 C 1116.046875 190.582031 1116.035156 190.539062 1116.019531 190.496094 C 1116.019531 190.492188 1116.019531 190.492188 1116.015625 190.488281 C 1115.9375 190.253906 1115.929688 190.015625 1115.972656 189.777344 C 1115.96875 189.78125 1115.972656 189.78125 1115.972656 189.777344 Z M 1319.859375 219.9375 L 1269.308594 115.898438 L 1242.839844 169.898438 Z M 1242.890625 173.621094 L 1250.648438 225.296875 L 1318.726562 222.894531 Z M 1260.757812 261.242188 L 1397.613281 259.441406 L 1323.753906 225.996094 Z M 1317.351562 226.035156 L 1251.109375 228.375 L 1255.921875 260.425781 Z M 1248 228.480469 L 1168.652344 231.277344 L 1252.816406 260.566406 Z M 1247.535156 225.40625 L 1239.699219 173.222656 L 1165.285156 228.3125 Z M 1240.574219 167.492188 L 1267.125 113.328125 L 1180.828125 87.285156 Z M 1181.679688 84.304688 L 1268.871094 110.617188 L 1358.179688 19.917969 Z M 1362 20.449219 L 1273.871094 109.949219 L 1352.675781 95.285156 Z M 1353.390625 98.296875 L 1275.136719 112.859375 L 1396.769531 157.542969 Z M 1272.382812 115.144531 L 1324.214844 221.824219 L 1397.976562 161.28125 Z M 1399.609375 163.941406 L 1326.585938 223.882812 L 1402.945312 258.457031 Z M 1302.660156 364.664062 L 1400.898438 262.492188 L 1257.113281 264.386719 Z M 1299.742188 365.722656 L 1254.140625 265.328125 L 1138.261719 358.671875 Z M 1251.605469 263.421875 L 1161.527344 232.074219 L 1136.464844 356.148438 Z M 1158.40625 231.886719 L 1135.839844 235.269531 L 1135.667969 344.449219 Z M 1135.292969 232.226562 L 1156.96875 228.984375 L 1121.328125 195.761719 Z M 1160.472656 228.023438 L 1234.839844 172.96875 L 1120.863281 191.097656 Z M 1238.078125 169.320312 L 1176.964844 87.28125 L 1120.402344 188.035156 Z M 1238.078125 169.320312 " fill-opacity="1" fill-rule="nonzero"/></g><path fill="#957f65" d="M 1159.625 353.195312 C 1159.667969 352.933594 1159.773438 352.679688 1159.949219 352.460938 C 1160.003906 352.398438 1160.058594 352.339844 1160.121094 352.28125 C 1160.121094 352.28125 1160.121094 352.277344 1160.125 352.277344 C 1160.277344 352.144531 1160.445312 352.046875 1160.628906 351.980469 L 1405.109375 258.808594 C 1405.144531 258.796875 1405.183594 258.78125 1405.21875 258.769531 C 1405.226562 258.769531 1405.226562 258.765625 1405.226562 258.765625 C 1405.460938 258.699219 1405.699219 258.6875 1405.9375 258.726562 C 1405.9375 258.726562 1405.941406 258.726562 1405.941406 258.726562 C 1405.945312 258.726562 1405.945312 258.726562 1405.949219 258.726562 C 1405.949219 258.726562 1405.949219 258.726562 1405.953125 258.726562 C 1405.957031 258.726562 1405.957031 258.726562 1405.960938 258.726562 C 1405.964844 258.722656 1405.96875 258.726562 1405.96875 258.730469 C 1405.96875 258.730469 1405.972656 258.730469 1405.972656 258.730469 C 1405.976562 258.730469 1405.980469 258.730469 1405.984375 258.730469 C 1405.984375 258.730469 1405.992188 258.734375 1406 258.734375 C 1406.011719 258.734375 1406.027344 258.738281 1406.039062 258.742188 C 1406.042969 258.746094 1406.046875 258.746094 1406.054688 258.746094 C 1406.058594 258.746094 1406.058594 258.746094 1406.0625 258.746094 C 1406.070312 258.75 1406.070312 258.75 1406.074219 258.75 C 1406.074219 258.75 1406.078125 258.75 1406.078125 258.75 C 1406.082031 258.75 1406.082031 258.75 1406.085938 258.75 C 1406.117188 258.761719 1406.148438 258.769531 1406.179688 258.78125 L 1555.699219 312.621094 C 1555.773438 312.644531 1555.84375 312.675781 1555.910156 312.714844 C 1555.910156 312.714844 1555.914062 312.714844 1555.914062 312.714844 C 1555.992188 312.753906 1556.066406 312.804688 1556.132812 312.851562 C 1556.132812 312.851562 1556.136719 312.851562 1556.136719 312.855469 C 1556.136719 312.855469 1556.140625 312.859375 1556.140625 312.859375 C 1556.324219 313 1556.476562 313.1875 1556.582031 313.40625 C 1556.582031 313.40625 1556.582031 313.410156 1556.582031 313.410156 C 1556.609375 313.457031 1556.628906 313.511719 1556.648438 313.5625 L 1577.546875 371.246094 L 1685.820312 495.953125 C 1685.859375 495.996094 1685.894531 496.042969 1685.933594 496.09375 C 1686.097656 496.328125 1686.1875 496.597656 1686.207031 496.867188 C 1686.207031 496.871094 1686.207031 496.871094 1686.207031 496.875 C 1686.214844 496.992188 1686.207031 497.109375 1686.191406 497.226562 C 1686.144531 497.523438 1686.007812 497.808594 1685.785156 498.042969 C 1685.785156 498.042969 1685.785156 498.042969 1685.785156 498.046875 C 1685.765625 498.066406 1685.746094 498.085938 1685.726562 498.101562 L 1525.269531 649.828125 C 1524.988281 650.097656 1524.613281 650.261719 1524.199219 650.261719 C 1524.167969 650.261719 1524.136719 650.261719 1524.105469 650.257812 C 1524.105469 650.257812 1524.097656 650.257812 1524.09375 650.257812 C 1524.082031 650.257812 1524.070312 650.257812 1524.0625 650.257812 L 1331.058594 632.605469 C 1330.773438 632.582031 1330.492188 632.476562 1330.25 632.292969 C 1330.242188 632.296875 1330.25 632.289062 1330.25 632.289062 C 1330.25 632.289062 1330.246094 632.285156 1330.242188 632.285156 L 1330.242188 632.28125 C 1330.242188 632.28125 1330.238281 632.28125 1330.234375 632.28125 C 1330.136719 632.203125 1330.046875 632.109375 1329.976562 632.015625 L 1247.511719 529.65625 C 1247.441406 529.570312 1247.382812 529.476562 1247.335938 529.386719 C 1247.335938 529.382812 1247.332031 529.378906 1247.332031 529.378906 C 1247.332031 529.375 1247.332031 529.375 1247.328125 529.371094 C 1247.238281 529.1875 1247.1875 528.996094 1247.171875 528.796875 L 1238.734375 425.390625 L 1160.121094 354.570312 C 1159.839844 354.316406 1159.671875 353.988281 1159.625 353.636719 C 1159.625 353.636719 1159.625 353.632812 1159.625 353.632812 C 1159.597656 353.492188 1159.601562 353.339844 1159.625 353.195312 Z M 1168.117188 352.4375 L 1337.039062 365.859375 L 1401.878906 263.351562 Z M 1404.46875 265.039062 L 1340.125 366.765625 L 1414.234375 398.21875 Z M 1456.402344 461.625 L 1542.144531 392.5 L 1418.640625 401.984375 Z M 1416.492188 404.367188 L 1382.84375 520.929688 L 1453.976562 463.578125 Z M 1458.066406 464.253906 L 1481.496094 501.257812 L 1541.515625 396.96875 Z M 1455.640625 466.207031 L 1385.9375 522.40625 L 1479.0625 503.203125 Z M 1381.074219 526.566406 L 1335.503906 625.410156 L 1475.902344 506.992188 Z M 1414.09375 401.523438 L 1340.160156 370.136719 L 1380.054688 519.433594 Z M 1407.386719 262.511719 L 1417.3125 397.96875 L 1551.660156 314.457031 Z M 1422.152344 398.605469 L 1545.582031 389.132812 L 1553.320312 317.070312 Z M 1556.015625 320.898438 L 1548.859375 387.554688 L 1574.316406 371.410156 Z M 1575.898438 374.070312 L 1549.664062 390.695312 L 1673.285156 486.234375 Z M 1547.4375 392.882812 L 1484.292969 502.601562 L 1680.335938 495.597656 Z M 1524.972656 645.871094 L 1680.628906 498.683594 L 1483.597656 505.703125 Z M 1522.074219 646.980469 L 1480.746094 506.960938 L 1335.019531 629.875 Z M 1330.828125 628.160156 L 1377.550781 526.820312 L 1251.878906 530.160156 Z M 1377.996094 523.714844 L 1337.339844 371.582031 L 1251.375 527.078125 Z M 1249.835938 523.464844 L 1333.765625 371.660156 L 1241.839844 425.507812 Z M 1240.414062 422.757812 L 1332.816406 368.628906 L 1165.574219 355.339844 Z M 1240.414062 422.757812 " fill-opacity="1" fill-rule="nonzero"/><path fill="#5a4a3c" d="M 994.769531 565.199219 C 994.886719 564.96875 995.058594 564.769531 995.28125 564.621094 C 995.328125 564.585938 995.382812 564.554688 995.433594 564.527344 L 1190.550781 460.34375 C 1190.628906 460.300781 1190.714844 460.265625 1190.796875 460.234375 C 1190.796875 460.234375 1190.796875 460.234375 1190.800781 460.234375 C 1190.847656 460.21875 1190.890625 460.203125 1190.9375 460.191406 C 1191.269531 460.113281 1191.636719 460.144531 1191.964844 460.304688 C 1191.964844 460.304688 1191.96875 460.304688 1191.96875 460.304688 C 1191.992188 460.3125 1192.011719 460.324219 1192.035156 460.339844 L 1385.441406 564.3125 C 1385.605469 564.398438 1385.757812 564.515625 1385.886719 564.664062 C 1385.886719 564.664062 1385.890625 564.664062 1385.890625 564.667969 C 1385.890625 564.667969 1385.890625 564.667969 1385.890625 564.671875 C 1385.890625 564.671875 1385.894531 564.671875 1385.894531 564.679688 C 1385.910156 564.695312 1385.925781 564.71875 1385.941406 564.738281 C 1385.941406 564.738281 1385.945312 564.738281 1385.945312 564.742188 C 1385.949219 564.742188 1385.945312 564.75 1385.953125 564.75 L 1385.953125 564.753906 C 1385.953125 564.757812 1385.953125 564.757812 1385.953125 564.761719 C 1386.035156 564.871094 1386.101562 564.988281 1386.148438 565.109375 L 1449.226562 718.167969 C 1449.257812 718.238281 1449.28125 718.3125 1449.300781 718.390625 C 1449.34375 718.566406 1449.359375 718.742188 1449.339844 718.917969 C 1449.339844 718.921875 1449.339844 718.921875 1449.339844 718.925781 L 1436.59375 841.296875 L 1502.386719 956.769531 C 1502.390625 956.78125 1502.394531 956.785156 1502.398438 956.792969 L 1502.398438 956.796875 C 1502.527344 957.035156 1502.589844 957.285156 1502.589844 957.535156 C 1502.589844 957.679688 1502.570312 957.824219 1502.53125 957.964844 C 1502.53125 957.96875 1502.53125 957.972656 1502.53125 957.972656 C 1502.53125 957.976562 1502.53125 957.976562 1502.53125 957.980469 C 1502.53125 957.980469 1502.53125 957.984375 1502.53125 957.988281 C 1502.511719 958.0625 1502.484375 958.136719 1502.449219 958.203125 C 1502.324219 958.464844 1502.128906 958.6875 1501.871094 958.851562 C 1501.871094 958.851562 1501.867188 958.855469 1501.867188 958.855469 C 1501.8125 958.890625 1501.753906 958.921875 1501.695312 958.945312 C 1501.484375 959.046875 1501.265625 959.109375 1501.027344 959.089844 L 1232.179688 959.730469 C 1232.175781 959.730469 1232.167969 959.730469 1232.164062 959.730469 C 1232.125 959.730469 1232.070312 959.71875 1232.046875 959.730469 C 1232.042969 959.71875 1232.039062 959.722656 1232.035156 959.726562 C 1231.902344 959.714844 1231.769531 959.683594 1231.644531 959.640625 C 1231.644531 959.640625 1231.644531 959.640625 1231.640625 959.640625 C 1231.457031 959.574219 1231.285156 959.472656 1231.136719 959.339844 L 1089.578125 832.78125 C 1089.515625 832.71875 1089.453125 832.65625 1089.402344 832.589844 C 1089.402344 832.589844 1089.398438 832.59375 1089.398438 832.582031 C 1089.398438 832.582031 1089.398438 832.578125 1089.394531 832.578125 C 1089.226562 832.367188 1089.113281 832.105469 1089.074219 831.816406 L 1079.625 756.523438 L 994.753906 566.539062 C 994.730469 566.480469 994.707031 566.425781 994.6875 566.367188 C 994.597656 566.085938 994.59375 565.792969 994.660156 565.519531 C 994.675781 565.410156 994.71875 565.304688 994.769531 565.199219 Z M 1193.054688 464.394531 L 1206.40625 643.417969 L 1381.21875 565.550781 Z M 1312.367188 664.078125 L 1380.15625 569.410156 L 1210.210938 645.109375 Z M 1207.257812 647.683594 L 1223.753906 700.9375 L 1307.625 666.34375 Z M 1311.820312 671.796875 L 1252.503906 792.570312 L 1321.777344 860.875 Z M 1309.859375 668.769531 L 1224.671875 703.902344 L 1250.949219 788.722656 Z M 1221.800781 705.082031 L 1119.183594 747.402344 L 1248.253906 790.472656 Z M 1220.882812 702.121094 L 1204.363281 648.808594 L 1120.371094 743.578125 Z M 1384.363281 568.847656 L 1315.464844 665.070312 L 1445 715.996094 Z M 1314.71875 668.097656 L 1324.875 860.816406 L 1445.234375 719.410156 Z M 1445.757812 723.5625 L 1327.632812 862.347656 L 1433.589844 840.347656 Z M 1434.226562 843.371094 L 1328.089844 865.410156 L 1497.09375 953.726562 Z M 1494.773438 956.007812 L 1323.839844 866.683594 L 1235.847656 956.628906 Z M 1321.351562 864.800781 L 1251.808594 796.230469 L 1234.199219 953.890625 Z M 1230.957031 955.03125 L 1248.839844 794.917969 L 1093.832031 832.433594 Z M 1245.027344 792.65625 L 1115.816406 749.539062 L 1092.824219 829.496094 Z M 1091.199219 823.957031 L 1112.542969 749.726562 L 1082.828125 757.269531 Z M 1082 754.28125 L 1112.304688 746.605469 L 1005.511719 583.066406 Z M 1114.964844 745.015625 L 1202.390625 646.371094 L 1000.054688 569.042969 Z M 1203.308594 643.4375 L 1189.9375 464.179688 L 999.871094 565.660156 Z M 1203.308594 643.4375 " fill-opacity="1" fill-rule="nonzero"/><g clip-path="url(#b70e06a341)"><path fill="#dec8aa" d="M 324.023438 189.777344 C 324.003906 189.675781 323.972656 189.578125 323.9375 189.480469 C 323.9375 189.480469 323.933594 189.476562 323.933594 189.46875 C 323.910156 189.40625 323.878906 189.347656 323.847656 189.292969 L 264.5625 83.6875 C 264.503906 83.582031 264.433594 83.488281 264.355469 83.398438 C 264.355469 83.398438 264.351562 83.398438 264.351562 83.398438 C 264.351562 83.398438 264.347656 83.394531 264.347656 83.394531 C 264.199219 83.234375 264.019531 83.105469 263.808594 83.019531 C 263.804688 83.019531 263.800781 83.019531 263.800781 83.019531 C 263.78125 83.011719 263.757812 83.003906 263.734375 82.996094 L 76.453125 14.667969 C 76.28125 14.601562 76.09375 14.5625 75.898438 14.5625 C 75.804688 14.550781 75.714844 14.570312 75.628906 14.585938 C 75.347656 14.636719 75.097656 14.761719 74.890625 14.933594 C 74.789062 15.019531 74.699219 15.121094 74.621094 15.230469 C 74.449219 15.484375 74.351562 15.789062 74.351562 16.105469 C 74.351562 16.160156 74.355469 16.210938 74.355469 16.257812 C 74.355469 16.257812 74.355469 16.261719 74.355469 16.265625 C 74.355469 16.277344 74.359375 16.289062 74.359375 16.304688 L 84.316406 96.179688 L 37.703125 159.84375 C 37.582031 160.011719 37.492188 160.203125 37.441406 160.410156 C 37.441406 160.410156 37.441406 160.414062 37.441406 160.414062 C 37.441406 160.414062 37.441406 160.417969 37.441406 160.417969 C 37.429688 160.46875 37.421875 160.515625 37.414062 160.566406 C 37.414062 160.566406 37.414062 160.570312 37.414062 160.570312 C 37.414062 160.570312 37.414062 160.570312 37.414062 160.574219 C 37.414062 160.574219 37.414062 160.574219 37.414062 160.578125 C 37.40625 160.621094 37.40625 160.664062 37.40625 160.710938 L 33.871094 260.820312 C 33.863281 260.9375 33.871094 261.058594 33.894531 261.175781 C 33.894531 261.175781 33.894531 261.175781 33.894531 261.179688 C 33.898438 261.183594 33.894531 261.1875 33.894531 261.1875 C 33.894531 261.191406 33.894531 261.191406 33.894531 261.191406 C 33.898438 261.199219 33.898438 261.207031 33.902344 261.21875 C 33.902344 261.222656 33.902344 261.222656 33.902344 261.222656 C 33.902344 261.226562 33.902344 261.230469 33.902344 261.234375 C 33.902344 261.238281 33.902344 261.238281 33.902344 261.242188 C 33.902344 261.25 33.902344 261.25 33.902344 261.25 C 33.96875 261.53125 34.109375 261.773438 34.300781 261.96875 L 136.679688 368.445312 C 136.980469 368.761719 137.386719 368.917969 137.792969 368.917969 C 137.816406 368.917969 137.84375 368.917969 137.871094 368.917969 L 305.953125 361.578125 C 305.957031 361.578125 305.957031 361.574219 305.964844 361.578125 C 305.964844 361.578125 305.96875 361.574219 305.972656 361.578125 C 305.972656 361.578125 305.972656 361.578125 305.976562 361.578125 C 305.980469 361.578125 305.980469 361.578125 305.984375 361.578125 L 305.988281 361.578125 C 306.320312 361.554688 306.625 361.429688 306.863281 361.230469 C 306.964844 361.148438 307.054688 361.054688 307.128906 360.949219 C 307.292969 360.730469 307.394531 360.464844 307.421875 360.175781 C 307.425781 360.121094 307.429688 360.066406 307.429688 360.015625 L 307.234375 234.21875 L 323.929688 190.625 C 323.945312 190.582031 323.960938 190.539062 323.976562 190.496094 C 323.976562 190.492188 323.976562 190.492188 323.980469 190.488281 C 324.058594 190.253906 324.066406 190.015625 324.023438 189.777344 C 324.027344 189.78125 324.023438 189.78125 324.023438 189.777344 Z M 120.136719 219.9375 L 170.6875 115.898438 L 197.15625 169.898438 Z M 197.105469 173.621094 L 189.347656 225.296875 L 121.269531 222.894531 Z M 179.238281 261.242188 L 42.382812 259.441406 L 116.238281 225.996094 Z M 122.644531 226.035156 L 188.886719 228.375 L 184.074219 260.425781 Z M 191.996094 228.480469 L 271.34375 231.277344 L 187.179688 260.566406 Z M 192.460938 225.40625 L 200.292969 173.222656 L 274.707031 228.3125 Z M 199.417969 167.492188 L 172.871094 113.328125 L 259.167969 87.285156 Z M 258.3125 84.304688 L 171.125 110.617188 L 81.816406 19.917969 Z M 77.996094 20.449219 L 166.125 109.949219 L 87.320312 95.285156 Z M 86.601562 98.296875 L 164.859375 112.859375 L 43.222656 157.542969 Z M 167.609375 115.144531 L 115.777344 221.824219 L 42.019531 161.28125 Z M 40.382812 163.941406 L 113.410156 223.882812 L 37.050781 258.457031 Z M 137.335938 364.664062 L 39.097656 262.492188 L 182.882812 264.386719 Z M 140.25 365.722656 L 185.855469 265.328125 L 301.734375 358.671875 Z M 188.386719 263.421875 L 278.46875 232.074219 L 303.53125 356.148438 Z M 281.585938 231.886719 L 304.15625 235.269531 L 304.324219 344.449219 Z M 304.699219 232.226562 L 283.027344 228.984375 L 318.664062 195.761719 Z M 279.519531 228.023438 L 205.152344 172.96875 L 319.132812 191.097656 Z M 201.914062 169.320312 L 263.027344 87.28125 L 319.589844 188.035156 Z M 201.914062 169.320312 " fill-opacity="1" fill-rule="nonzero"/></g><path fill="#957f65" d="M 280.367188 353.195312 C 280.328125 352.933594 280.21875 352.679688 280.042969 352.460938 C 279.992188 352.398438 279.9375 352.339844 279.875 352.28125 C 279.875 352.28125 279.875 352.277344 279.871094 352.277344 C 279.71875 352.144531 279.550781 352.046875 279.367188 351.980469 L 34.886719 258.808594 C 34.851562 258.796875 34.8125 258.78125 34.777344 258.769531 C 34.769531 258.769531 34.769531 258.765625 34.765625 258.765625 C 34.535156 258.699219 34.296875 258.6875 34.058594 258.726562 C 34.058594 258.726562 34.054688 258.726562 34.050781 258.726562 C 34.050781 258.726562 34.050781 258.726562 34.046875 258.726562 C 34.046875 258.726562 34.046875 258.726562 34.042969 258.726562 C 34.039062 258.726562 34.035156 258.726562 34.035156 258.726562 C 34.03125 258.722656 34.027344 258.726562 34.023438 258.730469 C 34.023438 258.730469 34.019531 258.730469 34.019531 258.730469 C 34.019531 258.730469 34.015625 258.730469 34.011719 258.730469 C 34.007812 258.730469 34.003906 258.734375 33.996094 258.734375 C 33.984375 258.734375 33.96875 258.738281 33.957031 258.742188 C 33.949219 258.746094 33.945312 258.746094 33.941406 258.746094 C 33.9375 258.746094 33.933594 258.746094 33.929688 258.746094 C 33.925781 258.75 33.925781 258.75 33.921875 258.75 C 33.917969 258.75 33.914062 258.75 33.914062 258.75 C 33.914062 258.75 33.914062 258.75 33.910156 258.75 C 33.878906 258.761719 33.847656 258.769531 33.816406 258.78125 L -115.703125 312.621094 C -115.777344 312.644531 -115.847656 312.675781 -115.917969 312.714844 C -115.917969 312.714844 -115.921875 312.714844 -115.921875 312.714844 C -115.996094 312.753906 -116.070312 312.804688 -116.140625 312.851562 C -116.140625 312.851562 -116.144531 312.851562 -116.144531 312.855469 C -116.144531 312.855469 -116.144531 312.859375 -116.144531 312.859375 C -116.328125 313 -116.480469 313.1875 -116.589844 313.40625 C -116.589844 313.40625 -116.589844 313.410156 -116.589844 313.410156 C -116.613281 313.457031 -116.632812 313.511719 -116.652344 313.5625 L -137.550781 371.246094 L -245.828125 495.953125 C -245.867188 495.996094 -245.902344 496.042969 -245.9375 496.09375 C -246.101562 496.328125 -246.195312 496.597656 -246.210938 496.867188 C -246.210938 496.871094 -246.210938 496.871094 -246.210938 496.875 C -246.21875 496.992188 -246.210938 497.109375 -246.199219 497.226562 C -246.148438 497.523438 -246.011719 497.808594 -245.792969 498.042969 C -245.792969 498.042969 -245.792969 498.042969 -245.789062 498.046875 C -245.769531 498.066406 -245.753906 498.085938 -245.734375 498.101562 L -85.277344 649.828125 C -84.992188 650.097656 -84.617188 650.261719 -84.207031 650.261719 C -84.175781 650.261719 -84.144531 650.261719 -84.113281 650.257812 C -84.113281 650.257812 -84.113281 650.257812 -84.109375 650.257812 C -84.109375 650.257812 -84.101562 650.257812 -84.101562 650.257812 C -84.085938 650.257812 -84.074219 650.257812 -84.066406 650.257812 L 108.9375 632.605469 C 109.21875 632.582031 109.5 632.476562 109.742188 632.292969 C 109.753906 632.296875 109.746094 632.289062 109.746094 632.289062 C 109.746094 632.289062 109.75 632.285156 109.753906 632.285156 L 109.753906 632.28125 C 109.753906 632.28125 109.753906 632.28125 109.757812 632.28125 C 109.859375 632.203125 109.949219 632.109375 110.019531 632.015625 L 192.484375 529.65625 C 192.550781 529.570312 192.609375 529.476562 192.660156 529.386719 C 192.65625 529.382812 192.664062 529.378906 192.664062 529.378906 C 192.664062 529.375 192.664062 529.375 192.667969 529.371094 C 192.757812 529.1875 192.808594 528.996094 192.820312 528.796875 L 201.257812 425.390625 L 279.875 354.570312 C 280.15625 354.316406 280.324219 353.988281 280.371094 353.636719 C 280.371094 353.636719 280.371094 353.632812 280.371094 353.632812 C 280.394531 353.492188 280.394531 353.339844 280.367188 353.195312 Z M 271.878906 352.4375 L 102.957031 365.859375 L 38.117188 263.351562 Z M 35.523438 265.039062 L 99.871094 366.765625 L 25.761719 398.21875 Z M -16.40625 461.625 L -102.148438 392.5 L 21.355469 401.984375 Z M 23.503906 404.367188 L 57.152344 520.929688 L -13.984375 463.578125 Z M -18.070312 464.253906 L -41.5 501.257812 L -101.519531 396.96875 Z M -15.648438 466.207031 L 54.054688 522.40625 L -39.070312 503.203125 Z M 58.921875 526.566406 L 104.492188 625.410156 L -35.90625 506.992188 Z M 25.902344 401.523438 L 99.835938 370.136719 L 59.9375 519.433594 Z M 32.609375 262.511719 L 22.679688 397.96875 L -111.667969 314.457031 Z M 17.84375 398.605469 L -105.585938 389.132812 L -113.324219 317.070312 Z M -116.023438 320.898438 L -108.863281 387.554688 L -134.320312 371.410156 Z M -135.902344 374.070312 L -109.667969 390.695312 L -233.289062 486.234375 Z M -107.441406 392.882812 L -44.296875 502.601562 L -240.34375 495.597656 Z M -84.976562 645.871094 L -240.632812 498.683594 L -43.601562 505.703125 Z M -82.082031 646.980469 L -40.75 506.960938 L 104.976562 629.875 Z M 109.164062 628.160156 L 62.445312 526.820312 L 188.117188 530.160156 Z M 62 523.714844 L 102.652344 371.582031 L 188.621094 527.078125 Z M 190.15625 523.464844 L 106.230469 371.660156 L 198.152344 425.507812 Z M 199.578125 422.757812 L 107.179688 368.628906 L 274.421875 355.339844 Z M 199.578125 422.757812 " fill-opacity="1" fill-rule="nonzero"/><path fill="#5a4a3c" d="M 445.226562 565.199219 C 445.109375 564.96875 444.9375 564.769531 444.714844 564.621094 C 444.664062 564.585938 444.613281 564.554688 444.558594 564.527344 L 249.441406 460.34375 C 249.367188 460.300781 249.28125 460.265625 249.199219 460.234375 C 249.199219 460.234375 249.199219 460.234375 249.195312 460.234375 C 249.148438 460.21875 249.101562 460.203125 249.054688 460.191406 C 248.726562 460.113281 248.359375 460.144531 248.027344 460.304688 C 248.003906 460.3125 247.984375 460.324219 247.960938 460.339844 L 54.554688 564.3125 C 54.390625 564.398438 54.238281 564.515625 54.109375 564.664062 C 54.109375 564.664062 54.105469 564.664062 54.105469 564.667969 C 54.105469 564.667969 54.105469 564.667969 54.101562 564.671875 C 54.101562 564.671875 54.097656 564.671875 54.097656 564.679688 C 54.082031 564.695312 54.066406 564.71875 54.054688 564.738281 C 54.054688 564.738281 54.050781 564.738281 54.050781 564.742188 C 54.046875 564.742188 54.050781 564.75 54.042969 564.75 L 54.042969 564.753906 C 54.042969 564.757812 54.039062 564.757812 54.039062 564.761719 C 53.960938 564.871094 53.894531 564.988281 53.84375 565.109375 L -9.230469 718.167969 C -9.261719 718.238281 -9.289062 718.3125 -9.304688 718.390625 C -9.347656 718.566406 -9.363281 718.742188 -9.347656 718.917969 C -9.347656 718.921875 -9.347656 718.921875 -9.347656 718.925781 L 3.402344 841.296875 L -62.390625 956.769531 C -62.394531 956.78125 -62.398438 956.785156 -62.402344 956.792969 L -62.402344 956.796875 C -62.535156 957.035156 -62.597656 957.285156 -62.597656 957.535156 C -62.597656 957.679688 -62.578125 957.824219 -62.535156 957.964844 C -62.535156 957.96875 -62.535156 957.972656 -62.535156 957.972656 C -62.535156 957.976562 -62.535156 957.976562 -62.535156 957.980469 C -62.535156 957.980469 -62.535156 957.984375 -62.535156 957.988281 C -62.515625 958.0625 -62.488281 958.136719 -62.453125 958.203125 C -62.328125 958.464844 -62.136719 958.6875 -61.875 958.851562 C -61.875 958.851562 -61.871094 958.855469 -61.871094 958.855469 C -61.816406 958.890625 -61.761719 958.921875 -61.703125 958.945312 C -61.488281 959.046875 -61.269531 959.109375 -61.035156 959.089844 L 207.816406 959.730469 C 207.820312 959.730469 207.828125 959.730469 207.828125 959.730469 C 207.871094 959.730469 207.925781 959.71875 207.945312 959.730469 C 207.949219 959.71875 207.957031 959.722656 207.960938 959.726562 C 208.09375 959.714844 208.226562 959.683594 208.347656 959.640625 C 208.351562 959.640625 208.351562 959.640625 208.355469 959.640625 C 208.539062 959.574219 208.707031 959.472656 208.855469 959.339844 L 350.414062 832.78125 C 350.480469 832.71875 350.542969 832.65625 350.59375 832.589844 C 350.59375 832.589844 350.597656 832.59375 350.597656 832.582031 C 350.597656 832.582031 350.597656 832.578125 350.601562 832.578125 C 350.765625 832.367188 350.882812 832.105469 350.917969 831.816406 L 360.367188 756.523438 L 445.242188 566.539062 C 445.265625 566.480469 445.289062 566.425781 445.304688 566.367188 C 445.394531 566.085938 445.402344 565.792969 445.332031 565.519531 C 445.316406 565.410156 445.277344 565.304688 445.226562 565.199219 Z M 246.941406 464.394531 L 233.585938 643.417969 L 58.777344 565.550781 Z M 127.628906 664.078125 L 59.839844 569.410156 L 229.785156 645.109375 Z M 232.734375 647.683594 L 216.238281 700.9375 L 132.371094 666.34375 Z M 128.175781 671.796875 L 187.492188 792.570312 L 118.214844 860.875 Z M 130.132812 668.769531 L 215.320312 703.902344 L 189.042969 788.722656 Z M 218.195312 705.082031 L 320.8125 747.402344 L 191.742188 790.472656 Z M 219.113281 702.121094 L 235.632812 648.808594 L 319.625 743.578125 Z M 55.632812 568.847656 L 124.527344 665.070312 L -5.007812 715.996094 Z M 125.273438 668.097656 L 115.121094 860.816406 L -5.238281 719.410156 Z M -5.765625 723.5625 L 112.359375 862.347656 L 6.40625 840.347656 Z M 5.765625 843.371094 L 111.90625 865.410156 L -57.097656 953.726562 Z M -54.78125 956.007812 L 116.15625 866.683594 L 204.144531 956.628906 Z M 118.640625 864.800781 L 188.1875 796.230469 L 205.796875 953.890625 Z M 209.039062 955.03125 L 191.152344 794.917969 L 346.164062 832.433594 Z M 194.96875 792.65625 L 324.179688 749.539062 L 347.171875 829.496094 Z M 348.796875 823.957031 L 327.449219 749.726562 L 357.167969 757.269531 Z M 357.992188 754.28125 L 327.691406 746.605469 L 434.484375 583.066406 Z M 325.03125 745.015625 L 237.605469 646.371094 L 439.941406 569.042969 Z M 236.6875 643.4375 L 250.058594 464.179688 L 440.125 565.660156 Z M 236.6875 643.4375 " fill-opacity="1" fill-rule="nonzero"/></svg>